# xmcd
#
# Track frame offsets: 
#        150
#        19253
#        39313
#        59740
#        76838
#        94781
#        116624
#        142634
#        166251
#        179121
#        194427
#        218022
#        239728
#        254642
#        274985
#        295071
#
# Disc length: 4129 seconds
#
# Revision: 0
# Processed by: cddbd v1.5.2PL0 Copyright (c) Steve Scherf et al.
# Submitted via: ExactAudioCopy v0.99pb5
#
DISCID=ef101f10
DTITLE=B. B. King - Lucille and Friends
DYEAR=1900
DGENRE=Blues
TTITLE0=When Love Comes To Town (U2)
TTITLE1=There Must Be A Better World Somewhere (Dr. John)
TTITLE2=Hummingbird (Leon Russell and Joe Walsh)
TTITLE3=To Know You Is To Love You (Stevie Wonder)
TTITLE4=Something You Got (Koko Taylor)
TTITLE5=All Over Again (Mark Knopfler)
TTITLE6=If You Love Me (Van Morrison)
TTITLE7=Playin' With My Friends (Robert Cray)
TTITLE8=Since I Met You Baby (Gary Moore)
TTITLE9=Frosty (Albert Collins)
TTITLE10=Ghetto Woman (Ringo Starr and Gary Wright)
TTITLE11=Can't Get Enough (Mick Fleetwood and Stevie Nicks)
TTITLE12=Better Not Look Down (The Crusaders)
TTITLE13=Everybody's Had The Blues (Joe Louis Walker)
TTITLE14=All You Ever Give Me Is The Blues (Vernon Reid)
TTITLE15=Three O'clock Blues (Bobby Bland)
EXTD=
EXTT0=
EXTT1=
EXTT2=
EXTT3=
EXTT4=
EXTT5=
EXTT6=
EXTT7=
EXTT8=
EXTT9=
EXTT10=
EXTT11=
EXTT12=
EXTT13=
EXTT14=
EXTT15=
PLAYORDER=
